<svg xmlns="http://www.w3.org/2000/svg" xmlns:xlink="http://www.w3.org/1999/xlink" width="800" zoomAndPan="magnify" viewBox="0 0 600 599.999999" height="800" preserveAspectRatio="xMidYMid meet" version="1.0"><defs><g/></defs><rect x="-60" width="720" fill="#ffffff" y="-60" height="719.999999" fill-opacity="1"/><rect x="-60" width="720" fill="#000000" y="-60" height="719.999999" fill-opacity="1"/><g fill="#ffffff" fill-opacity="1"><g transform="translate(74.353129, 337.125006)"><g><path d="M 38.109375 -75.640625 L 47.265625 -75.640625 L 47.265625 -21.5625 C 47.265625 -14.300781 45.3125 -8.71875 41.40625 -4.8125 C 37.507812 -0.914062 32.273438 1.03125 25.703125 1.03125 C 21.566406 1.03125 17.882812 0.273438 14.65625 -1.234375 C 11.4375 -2.753906 8.898438 -4.914062 7.046875 -7.71875 C 5.203125 -10.519531 4.28125 -13.859375 4.28125 -17.734375 L 13.296875 -17.734375 C 13.296875 -14.523438 14.460938 -11.945312 16.796875 -10 C 19.140625 -8.0625 22.109375 -7.09375 25.703125 -7.09375 C 29.671875 -7.09375 32.726562 -8.328125 34.875 -10.796875 C 37.03125 -13.273438 38.109375 -16.863281 38.109375 -21.5625 Z M 38.109375 -75.640625 "/></g></g></g><g fill="#ffffff" fill-opacity="1"><g transform="translate(138.580677, 337.125006)"><g><path d="M 13.59375 -75.640625 L 33.09375 -44.171875 L 33.6875 -44.171875 L 53.1875 -75.640625 L 63.96875 -75.640625 L 40.1875 -37.8125 L 63.96875 0 L 53.1875 0 L 33.6875 -30.875 L 33.09375 -30.875 L 13.59375 0 L 2.8125 0 L 27.1875 -37.8125 L 2.8125 -75.640625 Z M 13.59375 -75.640625 "/></g></g></g><g fill="#ffffff" fill-opacity="1"><g transform="translate(213.148351, 337.125006)"><g><path d="M 5.015625 -67.515625 L 5.015625 -75.640625 L 61.75 -75.640625 L 61.75 -67.515625 L 37.96875 -67.515625 L 37.96875 0 L 28.8125 0 L 28.8125 -67.515625 Z M 5.015625 -67.515625 "/></g></g></g><g fill="#ffffff" fill-opacity="1"><g transform="translate(287.716035, 337.125006)"><g><path d="M 69.140625 -75.640625 L 69.140625 0 L 60.265625 0 L 19.0625 -59.390625 L 18.3125 -59.390625 L 18.3125 0 L 9.15625 0 L 9.15625 -75.640625 L 18.015625 -75.640625 L 59.390625 -16.109375 L 60.125 -16.109375 L 60.125 -75.640625 Z M 69.140625 -75.640625 "/></g></g></g><g fill="#ffffff" fill-opacity="1"><g transform="translate(373.80554, 337.125006)"><g><path d="M 60.859375 -52 C 59.265625 -56.96875 56.640625 -60.894531 52.984375 -63.78125 C 49.328125 -66.664062 44.765625 -68.109375 39.296875 -68.109375 C 34.816406 -68.109375 30.738281 -66.945312 27.0625 -64.625 C 23.394531 -62.3125 20.476562 -58.898438 18.3125 -54.390625 C 16.144531 -49.890625 15.0625 -44.363281 15.0625 -37.8125 C 15.0625 -31.269531 16.15625 -25.742188 18.34375 -21.234375 C 20.539062 -16.734375 23.507812 -13.320312 27.25 -11 C 31 -8.6875 35.210938 -7.53125 39.890625 -7.53125 C 44.148438 -7.53125 47.921875 -8.4375 51.203125 -10.25 C 54.492188 -12.0625 57.070312 -14.617188 58.9375 -17.921875 C 60.8125 -21.234375 61.796875 -25.15625 61.890625 -29.6875 L 41.953125 -29.6875 L 41.953125 -37.8125 L 70.765625 -37.8125 L 70.765625 -29.6875 C 70.765625 -23.457031 69.441406 -18.039062 66.796875 -13.4375 C 64.148438 -8.832031 60.503906 -5.269531 55.859375 -2.75 C 51.210938 -0.226562 45.890625 1.03125 39.890625 1.03125 C 33.191406 1.03125 27.3125 -0.539062 22.25 -3.6875 C 17.1875 -6.84375 13.242188 -11.328125 10.421875 -17.140625 C 7.609375 -22.953125 6.203125 -29.84375 6.203125 -37.8125 C 6.203125 -45.789062 7.609375 -52.6875 10.421875 -58.5 C 13.242188 -64.3125 17.148438 -68.789062 22.140625 -71.9375 C 27.128906 -75.09375 32.847656 -76.671875 39.296875 -76.671875 C 44.609375 -76.671875 49.429688 -75.628906 53.765625 -73.546875 C 58.097656 -71.460938 61.707031 -68.566406 64.59375 -64.859375 C 67.476562 -61.160156 69.382812 -56.875 70.3125 -52 Z M 60.859375 -52 "/></g></g></g><g fill="#ffffff" fill-opacity="1"><g transform="translate(458.861048, 337.125006)"><g><path d="M 13.59375 -75.640625 L 33.09375 -44.171875 L 33.6875 -44.171875 L 53.1875 -75.640625 L 63.96875 -75.640625 L 40.1875 -37.8125 L 63.96875 0 L 53.1875 0 L 33.6875 -30.875 L 33.09375 -30.875 L 13.59375 0 L 2.8125 0 L 27.1875 -37.8125 L 2.8125 -75.640625 Z M 13.59375 -75.640625 "/></g></g></g></svg>
